{"title":"Talaash 2012 BRRip x264 Hindi ESubs - ViZNU [P2PDL]","uid":8241676,"size":848464746,"categoryP":"video","categoryS":"hd___movies","magnet":"?xt=urn:btih:576e21fcfe95ca00696eacfde8bc93b984b71b80&amp;dn=Talaash+2012+BRRip+x264+Hindi+ESubs+-+ViZNU+%5BP2PDL%5D&amp;tr=udp%3A%2F%2Ftracker.openbittorrent.com%3A80&amp;tr=udp%3A%2F%2Fopen.demonii.com%3A1337&amp;tr=udp%3A%2F%2Ftracker.coppersurfer.tk%3A6969&amp;tr=udp%3A%2F%2Fexodus.desync.com%3A6969","seeders":1,"leechers":0,"uploader":"ValidusVyto","files":-1,"time":1362970185,"description":"_________________________  Visit us at _________________________\n  &lt;a href=&quot;\nhttp://p2pdl.com&quot; rel=&quot;nofollow&quot; target=&quot;_NEW&quot;&gt;\nhttp://p2pdl.com&lt;/a&gt;  ____________________________ &lt;a href=&quot; http://p2pdl.com&quot; rel=&quot;nofollow&quot; target=&quot;_NEW&quot;&gt; http://p2pdl.com&lt;/a&gt;\n\n\nTalaash 2012 BRRip x264 Hindi ESubs - ViZNU\n\nGenre: Crime | Drama | Mystery\nPlot: A cop, investigating the mysterious death of a filmstar, meets a sex-worker, while he faces\nsome personal problems psychologically. The mystery connects these people in a way, that ultimately\nchanges their lives. \nDirector: Reema Kagti\nStars: Aamir Khan, Kareena Kapoor, Rani Mukerji.\nRated: N/a.\n\n\nIMDb: &lt;a href=&quot;\nhttp://www.imdb.com/title/tt1787988/&quot; rel=&quot;nofollow&quot; target=&quot;_NEW&quot;&gt;\nhttp://www.imdb.com/title/tt1787988/&lt;/a&gt;\n\nTrailer:\n\n\nFormat                         : MPEG-4\nFile size                      : 802 MiB\nDuration                       : 2h 20mn\nOverall bit rate               : 798 Kbps\nVideo Format                   : AVC\nVideo Bit rate                 : 711 Kbps\nWidth                          : 1 280 pixels\nHeight                         : 528 pixels\nDisplay aspect ratio           : 2.40:1\nFrame rate mode                : Constant\nFrame rate                     : 23.976 fps\nStream size                    : 715 MiB (89%)\nWriting library                : x264 core 129 r2245\nAudio Format                   : AAC\nDuration                       : 2h 20mn\nAudio Bit rate                 : 83.5 Kbps\nChannel(s)                     : 2 channels\nChannel positions              : Front: L R\nSampling rate                  : 48.0 KHz / 24.0 KHz\nStream size                    : 84.0 MiB (10%)\nLanguage                       : Hindi\nSubtitle                       : Yes(English)\nSource                         : DDR(Thanks)\n\nScreenshots:\n &lt;a href=&quot;\nhttp://i.imgbox.com/adfLSC9U.jpg&quot; rel=&quot;nofollow&quot; target=&quot;_NEW&quot;&gt;\nhttp://i.imgbox.com/adfLSC9U.jpg&lt;/a&gt; &lt;a href=&quot;\nhttp://i.imgbox.com/abp2mIES.png&quot; rel=&quot;nofollow&quot; target=&quot;_NEW&quot;&gt;\nhttp://i.imgbox.com/abp2mIES.png&lt;/a&gt; &lt;a href=&quot;\nhttp://i.imgbox.com/adxBM93y.jpg&quot; rel=&quot;nofollow&quot; target=&quot;_NEW&quot;&gt;\nhttp://i.imgbox.com/adxBM93y.jpg&lt;/a&gt; &lt;a href=&quot;\nhttp://i.imgbox.com/admBtjUt.jpg&quot; rel=&quot;nofollow&quot; target=&quot;_NEW&quot;&gt;\nhttp://i.imgbox.com/admBtjUt.jpg&lt;/a&gt; &lt;a href=&quot;\nhttp://i.imgbox.com/absWCFUH.jpg&quot; rel=&quot;nofollow&quot; target=&quot;_NEW&quot;&gt;\nhttp://i.imgbox.com/absWCFUH.jpg&lt;/a&gt; &lt;a href=&quot;\nhttp://i.imgbox.com/abl8IKmK.jpg&quot; rel=&quot;nofollow&quot; target=&quot;_NEW&quot;&gt;\nhttp://i.imgbox.com/abl8IKmK.jpg&lt;/a&gt;\n\n\n----------------------------------------------------------------------------------------------------\n\n\nEncoded using revolutionary 10bit encoding, which enables us to provide you more crispier and\nsharper images at small sizes, just make sure you follow our instructions without a fault.\nRecommend to you to use latest version of VLC player. Install K-Lite Codec Pack or shark007 codecs\nin case of any kind of problem in playback (For non-VLC Media Player users). Alternatively, install\nCore AVC codecs, the fastest decoder that there is coupled with Community Center Codec Pack and play\non Windows Media Player Classic.\n\n\n\nEncoder Notes: Looking For Early Access To Anything You Can Provide DVDScr, R5, DVDR, BluRay, Direct\nAudio, Music Releases and Seedboxes. We require dedicated servers, so as to do more and fast releases of movies.\nIf You Got anything to offer contact us at &quot;&lt;a class=&quot;__cf_email__&quot; href=&quot;/cdn-cgi/l/email-protection&quot; data-cfemail=&quot;ea9a988daa829f9982c4898587&quot;&gt;[email&amp;#160;protected]&lt;/a&gt;&lt;script cf-hash='f9e31' type=&quot;text/javascript&quot;&gt;\n/* &lt;![CDATA[ */!function(){try{var t=&quot;currentScript&quot;in document?document.currentScript:function(){for(var t=document.getElementsByTagName(&quot;script&quot;),e=t.length;e--;)if(t[e].getAttribute(&quot;cf-hash&quot;))return t[e]}();if(t&amp;&amp;t.previousSibling){var e,r,n,i,c=t.previousSibling,a=c.getAttribute(&quot;data-cfemail&quot;);if(a){for(e=&quot;&quot;,r=parseInt(a.substr(0,2),16),n=2;a.length-n;n+=2)i=parseInt(a.substr(n,2),16)^r,e+=String.fromCharCode(i);e=document.createTextNode(e),c.parentNode.replaceChild(e,c)}}}catch(u){}}();/* ]]&gt; */&lt;/script&gt;&quot;.","torrent":{"xt":"urn:btih:576e21fcfe95ca00696eacfde8bc93b984b71b80","amp;dn":"Talaash+2012+BRRip+x264+Hindi+ESubs+-+ViZNU+%5BP2PDL%5D","amp;tr":["udp%3A%2F%2Ftracker.openbittorrent.com%3A80","udp%3A%2F%2Fopen.demonii.com%3A1337","udp%3A%2F%2Ftracker.coppersurfer.tk%3A6969","udp%3A%2F%2Fexodus.desync.com%3A6969"],"infoHash":"576e21fcfe95ca00696eacfde8bc93b984b71b80","infoHashBuffer":{"type":"Buffer","data":[87,110,33,252,254,149,202,0,105,110,172,253,232,188,147,185,132,183,27,128]},"announce":[],"urlList":[]}}